<svg xmlns="http://www.w3.org/2000/svg" viewBox="0 0 1024 1024" role="img" aria-labelledby="title desc">
<title>RealFood Planner icon</title><desc>App icon with calendar, plate and leaf.</desc>
<defs>
  <linearGradient id="bg" x1="0" y1="0" x2="1" y2="1"><stop offset="0" stop-color="#2dd4bf"/><stop offset=".46" stop-color="#22c55e"/><stop offset="1" stop-color="#0f172a"/></linearGradient>
  <radialGradient id="glow" cx="25%" cy="16%" r="72%"><stop offset="0" stop-color="#ffffff" stop-opacity=".38"/><stop offset=".42" stop-color="#ffffff" stop-opacity=".06"/><stop offset="1" stop-color="#ffffff" stop-opacity="0"/></radialGradient>
  <filter id="shadow" x="-30%" y="-30%" width="160%" height="160%"><feDropShadow dx="0" dy="34" stdDeviation="36" flood-color="#020617" flood-opacity=".45"/></filter>
</defs>
<rect width="1024" height="1024" rx="230" fill="url(#bg)"/>
<rect width="1024" height="1024" rx="230" fill="url(#glow)"/>
<g filter="url(#shadow)">
  <rect x="214" y="178" width="596" height="668" rx="104" fill="#f8fafc" opacity=".98"/>
  <rect x="214" y="178" width="596" height="158" rx="104" fill="#14532d" opacity=".95"/>
  <path d="M214 282h596v94H214z" fill="#14532d"/>
  <circle cx="354" cy="260" r="30" fill="#86efac"/><circle cx="670" cy="260" r="30" fill="#86efac"/>
  <rect x="314" y="436" width="396" height="42" rx="21" fill="#cbd5e1"/>
  <rect x="314" y="524" width="246" height="42" rx="21" fill="#cbd5e1"/>
  <circle cx="512" cy="644" r="120" fill="#ecfdf5" stroke="#16a34a" stroke-width="26"/>
  <path d="M510 596c72-111 160-136 220-115-6 87-65 159-177 176 20-34 55-71 105-101-63 14-112 49-148 106-32-55-78-85-139-98 48 32 80 68 98 101-100-16-158-75-167-153 72-18 154 11 208 84z" fill="#16a34a"/>
</g>
</svg>